<svg width="24" height="24" viewBox="0 0 24 24" fill="none" xmlns="http://www.w3.org/2000/svg">
<path d="M18.7094 1.62633C16.5879 -0.52327 13.1249 -0.54572 10.9753 1.58143C10.9585 1.59827 10.9473 1.60949 10.9304 1.62633L6.38427 6.17249C6.29446 6.223 6.2215 6.29596 6.17099 6.38576L1.59677 10.9544C-0.535995 13.0927 -0.530382 16.5557 1.60238 18.6884C3.75198 20.8156 7.20931 20.8156 9.36452 18.6884L9.37014 18.6828L13.9387 14.0974C13.9724 14.0749 14.0005 14.0525 14.0285 14.0244C14.0566 13.9964 14.0791 13.9683 14.1015 13.9346L18.6645 9.36041C20.8141 7.23887 20.8309 3.77593 18.7094 1.62633ZM8.57316 17.8915C6.86133 19.5808 4.10557 19.5865 2.39375 17.8915C0.704376 16.1909 0.704376 13.4463 2.39375 11.7457L6.68173 7.45776L12.8331 13.6203L8.57316 17.8915ZM17.8731 8.55782L13.6244 12.8177L7.4731 6.66639L11.7274 2.41209C13.4224 0.717101 16.1781 0.717101 17.8731 2.41209C19.5681 4.10707 19.5681 6.86283 17.8731 8.55782Z" fill="black"/>
<path d="M13.5174 4.14081C13.3041 3.91631 12.9505 3.9107 12.726 4.1352L10.7841 6.04346C10.5596 6.26235 10.5596 6.61594 10.7728 6.83483C10.9861 7.05372 11.3453 7.05933 11.5642 6.84606L11.5698 6.84044L13.5061 4.93218C13.7306 4.71329 13.7306 4.3597 13.5174 4.14081Z" fill="black"/>
<path d="M22.4078 14.7091C22.4078 14.7091 22.4078 14.7091 22.4022 14.7035C20.3087 12.5763 16.8851 12.5539 14.7579 14.653C14.7411 14.6698 14.7242 14.6866 14.7074 14.7035C12.5802 16.8306 12.5802 20.2767 14.7018 22.4039C16.8233 24.531 20.275 24.531 22.4022 22.4095C24.5293 20.2823 24.5293 16.8362 22.4078 14.7091ZM14.2359 18.5537C14.2359 16.1683 16.1723 14.232 18.5576 14.232C19.5061 14.232 20.4322 14.5463 21.1843 15.1244L15.1283 21.186C14.5502 20.4283 14.2359 19.5022 14.2359 18.5537ZM21.6108 21.6069C20.0786 23.1391 17.6428 23.2963 15.9253 21.9773L21.9812 15.9214C23.3058 17.6388 23.1487 20.0747 21.6108 21.6069Z" fill="black"/>
</svg>
